# xmcd
#
# Track frame offsets:
# 150
# 11687
# 25560
# 40260
# 55497
# 68390
# 81292
# 93662
# 107087
# 123035
# 138182
# 151040
# 164657
# 178992
#
# Disc length: 2620 seconds
#
#
# Revision: 0
# Processed by: cddbd v1.5.1PL0 Copyright (c) Steve Scherf et al.
# Submitted via: FreeRIP 2.941 
#
DISCID=ad0a3a0e
DTITLE=Varios Artistas - 50 Anos de Música Cabloca
DYEAR=1900
DGENRE=Sertaneja
TTITLE0=1-Toada de Mutirão
TTITLE1=2-Bonde Camarão
TTITLE2=3-No Braço Desta Viola
TTITLE3=4-Sodade do Tempo Véio
TTITLE4=5-Canoeiro
TTITLE5=6-Moda dos Meses
TTITLE6=7-Volta Comigo Morena
TTITLE7=8Viva o Projeto Minerva
TTITLE8=9-Tá do Jeito Que Eu Queria
TTITLE9=10-Sertão do Laranjinha
TTITLE10=11-São Gonçalo
TTITLE11=12-O Peão eo Ricaço
TTITLE12=13-Saudades do Japão
TTITLE13=Ideal do Caboclo
EXTD=
EXTT0=
EXTT1=
EXTT2=
EXTT3=
EXTT4=
EXTT5=
EXTT6=
EXTT7=
EXTT8=
EXTT9=
EXTT10=
EXTT11=
EXTT12=
EXTT13=
PLAYORDER=
